<svg width="73" height="74" viewBox="0 0 73 74" fill="none" xmlns="http://www.w3.org/2000/svg">
<rect y="0.543457" width="73" height="73" rx="4" fill="#F1F1F1"/>
<path d="M23 36.0435C22.1716 36.0435 21.5 36.715 21.5 37.5435C21.5 38.3719 22.1716 39.0435 23 39.0435V36.0435ZM50.0607 38.6041C50.6464 38.0183 50.6464 37.0686 50.0607 36.4828L40.5147 26.9369C39.9289 26.3511 38.9792 26.3511 38.3934 26.9369C37.8076 27.5226 37.8076 28.4724 38.3934 29.0582L46.8787 37.5435L38.3934 46.0287C37.8076 46.6145 37.8076 47.5643 38.3934 48.1501C38.9792 48.7358 39.9289 48.7358 40.5147 48.1501L50.0607 38.6041ZM23 39.0435H49V36.0435H23V39.0435Z" fill="#464646"/>
</svg>
