<svg width="45" height="45" viewBox="0 0 45 45" fill="none" xmlns="http://www.w3.org/2000/svg">
<circle cx="22.5628" cy="22.6845" r="22.289" fill="#A5462C"/>
<mask id="mask0_19_34" style="mask-type:alpha" maskUnits="userSpaceOnUse" x="9" y="12" width="25" height="25">
<rect x="9.93373" y="12.9319" width="23.2581" height="23.2581" fill="#D9D9D9"/>
</mask>
<g mask="url(#mask0_19_34)">
<path d="M17.6268 38.9155C17.0939 38.9155 16.6377 38.6521 16.2582 38.1253C15.8787 37.5985 15.689 36.9652 15.689 36.2255C15.689 35.4857 15.8787 34.8524 16.2582 34.3256C16.6377 33.7988 17.0939 33.5354 17.6268 33.5354C18.1597 33.5354 18.6159 33.7988 18.9954 34.3256C19.3749 34.8524 19.5647 35.4857 19.5647 36.2255C19.5647 36.9652 19.3749 37.5985 18.9954 38.1253C18.6159 38.6521 18.1597 38.9155 17.6268 38.9155ZM27.3161 38.9155C26.7832 38.9155 26.327 38.6521 25.9475 38.1253C25.568 37.5985 25.3782 36.9652 25.3782 36.2255C25.3782 35.4857 25.568 34.8524 25.9475 34.3256C26.327 33.7988 26.7832 33.5354 27.3161 33.5354C27.849 33.5354 28.3052 33.7988 28.6847 34.3256C29.0642 34.8524 29.2539 35.4857 29.2539 36.2255C29.2539 36.9652 29.0642 37.5985 28.6847 38.1253C28.3052 38.6521 27.849 38.9155 27.3161 38.9155ZM16.8032 17.3952L19.1286 24.1203H25.9111L28.5757 17.3952H16.8032ZM15.8827 14.7052H30.1744C30.5458 14.7052 30.8284 14.9349 31.0222 15.3945C31.216 15.854 31.2241 16.3192 31.0464 16.7899L27.6067 25.3981C27.4291 25.8464 27.1909 26.1939 26.8922 26.4405C26.5934 26.687 26.2664 26.8103 25.9111 26.8103H18.6926L17.6268 29.5004H29.2539V32.1904H17.6268C16.9001 32.1904 16.3511 31.7477 15.9796 30.8622C15.6082 29.9767 15.5921 29.0969 15.9312 28.2226L17.2392 24.9273L13.7511 14.7052H11.8133V12.0151H14.9623L15.8827 14.7052Z" fill="white"/>
</g>
</svg>
