<svg width="24" height="25" viewBox="0 0 24 25" fill="none" xmlns="http://www.w3.org/2000/svg">
<mask id="mask0_19_71" style="mask-type:alpha" maskUnits="userSpaceOnUse" x="0" y="0" width="24" height="25">
<rect x="-3.05176e-05" y="0.437744" width="24" height="24" fill="#D9D9D9"/>
</mask>
<g mask="url(#mask0_19_71)">
<path d="M10.6 17.0377L17.65 9.98774L16.25 8.58774L10.6 14.2377L7.74997 11.3877L6.34997 12.7877L10.6 17.0377ZM12 22.4377C10.6166 22.4377 9.31664 22.1752 8.09997 21.6502C6.8833 21.1252 5.82497 20.4127 4.92497 19.5127C4.02497 18.6127 3.31247 17.5544 2.78747 16.3377C2.26247 15.1211 1.99997 13.8211 1.99997 12.4377C1.99997 11.0544 2.26247 9.75441 2.78747 8.53774C3.31247 7.32108 4.02497 6.26274 4.92497 5.36274C5.82497 4.46274 6.8833 3.75024 8.09997 3.22524C9.31664 2.70024 10.6166 2.43774 12 2.43774C13.3833 2.43774 14.6833 2.70024 15.9 3.22524C17.1166 3.75024 18.175 4.46274 19.075 5.36274C19.975 6.26274 20.6875 7.32108 21.2125 8.53774C21.7375 9.75441 22 11.0544 22 12.4377C22 13.8211 21.7375 15.1211 21.2125 16.3377C20.6875 17.5544 19.975 18.6127 19.075 19.5127C18.175 20.4127 17.1166 21.1252 15.9 21.6502C14.6833 22.1752 13.3833 22.4377 12 22.4377ZM12 20.4377C14.2333 20.4377 16.125 19.6627 17.675 18.1127C19.225 16.5627 20 14.6711 20 12.4377C20 10.2044 19.225 8.31274 17.675 6.76274C16.125 5.21274 14.2333 4.43774 12 4.43774C9.76664 4.43774 7.87497 5.21274 6.32497 6.76274C4.77497 8.31274 3.99997 10.2044 3.99997 12.4377C3.99997 14.6711 4.77497 16.5627 6.32497 18.1127C7.87497 19.6627 9.76664 20.4377 12 20.4377Z" fill="#F1E5E5"/>
</g>
</svg>
