<svg width="43" height="41" viewBox="0 0 43 41" fill="none" xmlns="http://www.w3.org/2000/svg">
<mask id="mask0_52_207" style="mask-type:alpha" maskUnits="userSpaceOnUse" x="0" y="0" width="43" height="41">
<rect x="0.333771" y="0.543457" width="42.5405" height="40" fill="#D9D9D9"/>
</mask>
<g mask="url(#mask0_52_207)">
<path d="M13.6277 28.0436L26.0354 24.7103L29.5804 13.0436L17.1728 16.377L13.6277 28.0436ZM21.6041 23.0436C20.8655 23.0436 20.2378 22.8006 19.7208 22.3145C19.2038 21.8283 18.9453 21.2381 18.9453 20.5436C18.9453 19.8492 19.2038 19.2589 19.7208 18.7728C20.2378 18.2867 20.8655 18.0436 21.6041 18.0436C22.3426 18.0436 22.9704 18.2867 23.4874 18.7728C24.0044 19.2589 24.2629 19.8492 24.2629 20.5436C24.2629 21.2381 24.0044 21.8283 23.4874 22.3145C22.9704 22.8006 22.3426 23.0436 21.6041 23.0436ZM21.6041 37.2103C19.1521 37.2103 16.8478 36.7728 14.6912 35.8978C12.5347 35.0228 10.6587 33.8353 9.06347 32.3353C7.4682 30.8353 6.20528 29.0714 5.27471 27.0436C4.34413 25.0158 3.87885 22.8492 3.87885 20.5436C3.87885 18.2381 4.34413 16.0714 5.27471 14.0436C6.20528 12.0158 7.4682 10.252 9.06347 8.75195C10.6587 7.25195 12.5347 6.06445 14.6912 5.18945C16.8478 4.31445 19.1521 3.87695 21.6041 3.87695C24.0561 3.87695 26.3603 4.31445 28.5169 5.18945C30.6735 6.06445 32.5494 7.25195 34.1447 8.75195C35.7399 10.252 37.0029 12.0158 37.9334 14.0436C38.864 16.0714 39.3293 18.2381 39.3293 20.5436C39.3293 22.8492 38.864 25.0158 37.9334 27.0436C37.0029 29.0714 35.7399 30.8353 34.1447 32.3353C32.5494 33.8353 30.6735 35.0228 28.5169 35.8978C26.3603 36.7728 24.0561 37.2103 21.6041 37.2103ZM21.6041 33.877C25.5332 33.877 28.8788 32.5783 31.641 29.9811C34.4032 27.3839 35.7843 24.2381 35.7843 20.5436C35.7843 16.8492 34.4032 13.7033 31.641 11.1061C28.8788 8.5089 25.5332 7.21029 21.6041 7.21029C17.675 7.21029 14.3293 8.5089 11.5672 11.1061C8.80498 13.7033 7.42389 16.8492 7.42389 20.5436C7.42389 24.2381 8.80498 27.3839 11.5672 29.9811C14.3293 32.5783 17.675 33.877 21.6041 33.877Z" fill="#953B22"/>
</g>
</svg>
