<svg width="40" height="49" viewBox="0 0 40 49" fill="none" xmlns="http://www.w3.org/2000/svg">
<path fill-rule="evenodd" clip-rule="evenodd" d="M35 0.85788H4.99997C2.23855 0.85788 -3.05176e-05 3.09645 -3.05176e-05 5.85788V43.8579C-3.05176e-05 46.6193 2.23855 48.8579 4.99997 48.8579H35C37.7614 48.8579 40 46.6193 40 43.8579C40 43.3056 39.5523 42.8579 39 42.8579H37C36.4477 42.8579 36 43.3056 36 43.8579C36 44.4102 35.5523 44.8579 35 44.8579H4.99997C4.44769 44.8579 3.99997 44.4102 3.99997 43.8579V5.85788C3.99997 5.30559 4.44769 4.85788 4.99997 4.85788H35C35.5523 4.85788 36 5.3056 36 5.85788C36 6.41016 36.4477 6.85788 37 6.85788H39C39.5523 6.85788 40 6.41016 40 5.85788C40 3.09646 37.7614 0.85788 35 0.85788Z" fill="white"/>
</svg>
