<svg width="40" height="41" viewBox="0 0 40 41" fill="none" xmlns="http://www.w3.org/2000/svg">
<mask id="mask0_52_191" style="mask-type:alpha" maskUnits="userSpaceOnUse" x="0" y="0" width="40" height="41">
<rect y="0.501953" width="40" height="39.8717" fill="#D9D9D9"/>
</mask>
<g mask="url(#mask0_52_191)">
<path d="M33.25 35.3896C29.7778 35.3896 26.3472 34.6351 22.9583 33.1261C19.5694 31.6171 16.4861 29.4781 13.7083 26.7092C10.9306 23.9404 8.78472 20.8669 7.27083 17.4889C5.75694 14.1109 5 10.6913 5 7.23023C5 6.73183 5.16667 6.3165 5.5 5.98424C5.83333 5.65197 6.25 5.48584 6.75 5.48584H13.5C13.8889 5.48584 14.2361 5.61736 14.5417 5.8804C14.8472 6.14345 15.0278 6.45494 15.0833 6.8149L16.1667 12.6295C16.2222 13.0725 16.2083 13.4463 16.125 13.7509C16.0417 14.0555 15.8889 14.3185 15.6667 14.54L11.625 18.6103C12.1806 19.6348 12.8403 20.6246 13.6042 21.5799C14.3681 22.5352 15.2083 23.4558 16.125 24.3418C16.9861 25.2002 17.8889 25.9962 18.8333 26.73C19.7778 27.4637 20.7778 28.1352 21.8333 28.7444L25.75 24.8402C26 24.591 26.3264 24.4041 26.7292 24.2795C27.1319 24.1549 27.5278 24.1203 27.9167 24.1757L33.6667 25.3386C34.0556 25.4494 34.375 25.6501 34.625 25.9409C34.875 26.2316 35 26.5569 35 26.9169V33.6453C35 34.1437 34.8333 34.559 34.5 34.8912C34.1667 35.2235 33.75 35.3896 33.25 35.3896ZM10.0417 15.4538L12.7917 12.7126L12.0833 8.80848H8.375C8.51389 9.94372 8.70833 11.0651 8.95833 12.1727C9.20833 13.2802 9.56944 14.3739 10.0417 15.4538ZM24.9583 30.3226C26.0417 30.7933 27.1458 31.1671 28.2708 31.444C29.3958 31.7209 30.5278 31.9009 31.6667 31.9839V28.329L27.75 27.5399L24.9583 30.3226Z" fill="#953B22"/>
</g>
</svg>
